<svg xmlns="http://www.w3.org/2000/svg" width="743.36" height="136.393" viewBox="0 0 743.36 136.393">
  <g id="Group_40" data-name="Group 40" transform="translate(-201.64 -80.357)">
    <g id="Group_31" data-name="Group 31">
      <path id="Path_31" data-name="Path 31" d="M647.807,196.035a18.158,18.158,0,0,1-11.594,3.648q-5.807,0-9.033-3.4t-3.236-9.858v-4.949H603.229v5.448q0,14.586,7.954,22.207t22.539,7.621a39.762,39.762,0,0,0,11.024-1.491,24.32,24.32,0,0,0,8.867-4.473Zm-23.863-51.709h23.7V127.759h-23.7V107.536H603.229V167.2h20.715Z" fill="#fff"/>
      <rect id="Rectangle_57" data-name="Rectangle 57" width="20.715" height="14.275" transform="translate(611.159 167.199)" fill="#fc1923"/>
    </g>
    <g id="Group_32" data-name="Group 32">
      <path id="Path_32" data-name="Path 32" d="M720.364,126.1v19.722a26.279,26.279,0,0,0-4.806-.5q-12.1,0-18.893,7.043t-6.795,20.3v28.647H669.154V127.094h19.722V140.02Q697.825,126.1,720.364,126.1Z" fill="#fff"/>
      <rect id="Rectangle_58" data-name="Rectangle 58" width="20.715" height="14.275" transform="translate(677.045 201.316)" fill="#fc1923"/>
    </g>
    <g id="Group_33" data-name="Group 33">
      <path id="Path_33" data-name="Path 33" d="M329.735,167.2a26.192,26.192,0,0,1,7.145-15.909q7.375-7.626,18.812-7.622t18.891,7.622a26.05,26.05,0,0,1,7.225,15.909h20.62V127.093H381.713v10.77a34.873,34.873,0,0,0-12.515-8.779,40.954,40.954,0,0,0-15.83-2.982,47.049,47.049,0,0,0-23.118,5.63,40.252,40.252,0,0,0-15.909,15.83,45.934,45.934,0,0,0-5.575,19.637Zm-16.211,0q-.143,2.034-.143,4.147a56.159,56.159,0,0,0,.881,10.128A44.18,44.18,0,0,0,319.1,195.21a40.078,40.078,0,0,0,15.909,15.909,46.96,46.96,0,0,0,23.118,5.631,42.762,42.762,0,0,0,16.654-3.149,31.956,31.956,0,0,0,12.681-9.445v11.436h19.724V181.474H385.3a24.894,24.894,0,0,1-5.964,9.921q-7.458,7.626-18.891,7.622T341.639,191.4a25.053,25.053,0,0,1-5.909-9.921,33.178,33.178,0,0,1-1.467-10.128,35.081,35.081,0,0,1,.23-4.147Z" fill="#fff"/>
      <rect id="Rectangle_59" data-name="Rectangle 59" width="20.715" height="14.275" transform="translate(394.402 167.199)" fill="#fc1923"/>
    </g>
    <g id="Group_34" data-name="Group 34">
      <path id="Path_34" data-name="Path 34" d="M229.731,151.29q7.375-7.626,18.811-7.622t18.891,7.622a26.045,26.045,0,0,1,7.225,15.909H295.6a43.984,43.984,0,0,0-5.876-19.224A42.525,42.525,0,0,0,272.906,131.9a53.745,53.745,0,0,0-48.56,0,42.407,42.407,0,0,0-16.821,16.076A43.875,43.875,0,0,0,201.64,167.2h20.945A26.188,26.188,0,0,1,229.731,151.29Zm37.7,40.105q-7.458,7.626-18.891,7.622T229.731,191.4a25.053,25.053,0,0,1-5.909-9.921H202.465a43.211,43.211,0,0,0,5.06,13.316,42.26,42.26,0,0,0,16.821,16.163,53.745,53.745,0,0,0,48.56,0,42.376,42.376,0,0,0,16.821-16.163,43.219,43.219,0,0,0,5.052-13.316H273.4A24.894,24.894,0,0,1,267.433,191.4Z" fill="#fff"/>
      <rect id="Rectangle_60" data-name="Rectangle 60" width="20.715" height="14.275" transform="translate(209.404 167.199)" fill="#fc1923"/>
    </g>
    <g id="Group_35" data-name="Group 35">
      <path id="Path_35" data-name="Path 35" d="M807.939,112.647c-7.305.009-12.72.047-21.215.038l5.771,7.534h21.317Z" fill="#fc1923"/>
      <rect id="Rectangle_61" data-name="Rectangle 61" width="20.715" height="14.275" transform="translate(816.783 167.199)" fill="#fc1923"/>
      <path id="Path_36" data-name="Path 36" d="M807.258,80.357H785.052l25.2,19.391h15.909ZM752.116,167.2a26.192,26.192,0,0,1,7.145-15.909q7.375-7.626,18.812-7.622t18.891,7.622a26.05,26.05,0,0,1,7.225,15.909h20.62V127.093H804.094v10.77a34.872,34.872,0,0,0-12.515-8.779,40.954,40.954,0,0,0-15.83-2.982,47.049,47.049,0,0,0-23.118,5.63,40.252,40.252,0,0,0-15.909,15.83,45.934,45.934,0,0,0-5.575,19.637Zm-16.211,0q-.143,2.034-.143,4.147a56.162,56.162,0,0,0,.881,10.128,44.2,44.2,0,0,0,4.837,13.736,40.087,40.087,0,0,0,15.91,15.909,46.96,46.96,0,0,0,23.118,5.631,42.762,42.762,0,0,0,16.654-3.149,31.956,31.956,0,0,0,12.681-9.445v11.436h19.724V181.474H807.686a24.893,24.893,0,0,1-5.964,9.921q-7.458,7.626-18.891,7.622T764.02,191.4a25.053,25.053,0,0,1-5.909-9.921,33.177,33.177,0,0,1-1.467-10.128,35.081,35.081,0,0,1,.23-4.147Z" fill="#fff"/>
      <path id="Path_37" data-name="Path 37" d="M804.46,112.647,790.938,95.212H775.552l-19.4,25.007h21.319l5.77-7.534h0C791.74,112.694,797.155,112.656,804.46,112.647Z" fill="#fff"/>
    </g>
    <g id="Group_37" data-name="Group 37">
      <path id="Path_38" data-name="Path 38" d="M934.891,135.877Q924.78,126.1,908.043,126.1a46.554,46.554,0,0,0-17.567,3.149,32.385,32.385,0,0,0-12.927,9.281V127.094H857.828v56.759h20.716V170.845q0-12.926,6.628-19.8t18.065-6.877q10.107,0,15.578,5.883t5.469,17.484v16.322H945V164.88Q945,145.656,934.891,135.877Z" fill="#fff"/>
      <g id="Group_36" data-name="Group 36">
        <rect id="Rectangle_62" data-name="Rectangle 62" width="20.716" height="31.738" transform="translate(852.276 183.853)" fill="#fff"/>
        <rect id="Rectangle_63" data-name="Rectangle 63" width="20.716" height="31.738" transform="translate(918.733 183.853)" fill="#fff"/>
      </g>
    </g>
    <g id="Group_39" data-name="Group 39">
      <path id="Path_39" data-name="Path 39" d="M575.025,135.794q-9.78-9.695-26.516-9.7a45.766,45.766,0,0,0-19.059,3.9,36.882,36.882,0,0,0-14.086,10.855,28.66,28.66,0,0,0-12.181-11.021,40.037,40.037,0,0,0-17.65-3.729,42.237,42.237,0,0,0-16.573,3.149,32.214,32.214,0,0,0-12.429,9.115V127.094H436.809v56.759h20.716V170.68q0-12.927,6.214-19.721t16.822-6.795q9.609,0,14.75,5.883t5.137,17.484v16.322h20.716V170.68q0-12.76,6.3-19.639t16.738-6.877q9.609,0,14.749,5.883t5.138,17.484v16.322H584.8V164.88Q584.8,145.49,575.025,135.794Z" fill="#fff"/>
      <g id="Group_38" data-name="Group 38">
        <rect id="Rectangle_64" data-name="Rectangle 64" width="20.716" height="31.738" transform="translate(494.897 183.853)" fill="#fff"/>
        <rect id="Rectangle_65" data-name="Rectangle 65" width="20.716" height="31.738" transform="translate(431.258 183.853)" fill="#fff"/>
        <rect id="Rectangle_66" data-name="Rectangle 66" width="20.716" height="31.738" transform="translate(558.535 183.853)" fill="#fff"/>
      </g>
    </g>
  </g>
</svg>
