<svg xmlns="http://www.w3.org/2000/svg" width="774.36" height="142.08" viewBox="0 0 774.36 142.08">
  <g id="Group_60" data-name="Group 60" transform="translate(-179.64 249.55)">
    <g id="Group_51" data-name="Group 51">
      <path id="Path_50" data-name="Path 50" d="M644.414-129.049a18.916,18.916,0,0,1-12.079,3.8q-6.047,0-9.409-3.544t-3.371-10.269v-5.156H597.976v5.676q0,15.193,8.286,23.132t23.479,7.939a41.416,41.416,0,0,0,11.484-1.553,25.339,25.339,0,0,0,9.236-4.659Zm-24.859-53.864H644.24v-17.259H619.555v-21.066H597.976v62.151h21.579Z"/>
      <rect id="Rectangle_86" data-name="Rectangle 86" width="21.579" height="14.871" transform="translate(606.237 -159.087)" fill="#fc1923"/>
    </g>
    <g id="Group_52" data-name="Group 52">
      <path id="Path_51" data-name="Path 51" d="M720-201.9v20.544a27.448,27.448,0,0,0-5.007-.518q-12.6,0-19.681,7.337t-7.077,21.149v29.842h-21.58v-77.318H687.2V-187.4Q696.517-201.9,720-201.9Z"/>
      <rect id="Rectangle_87" data-name="Rectangle 87" width="21.579" height="14.871" transform="translate(674.87 -123.547)" fill="#fc1923"/>
    </g>
    <g id="Group_53" data-name="Group 53">
      <path id="Path_52" data-name="Path 52" d="M313.076-159.087a27.288,27.288,0,0,1,7.444-16.573q7.683-7.942,19.6-7.939T359.8-175.66a27.137,27.137,0,0,1,7.526,16.573H388.8v-41.779H367.222v11.22a36.326,36.326,0,0,0-13.036-9.146A42.667,42.667,0,0,0,337.7-201.9a49.021,49.021,0,0,0-24.083,5.865,41.923,41.923,0,0,0-16.572,16.49,47.873,47.873,0,0,0-5.808,20.456Zm-16.886,0q-.148,2.118-.149,4.32a58.542,58.542,0,0,0,.917,10.55A46.021,46.021,0,0,0,302-129.908a41.758,41.758,0,0,0,16.572,16.573,48.921,48.921,0,0,0,24.083,5.865A44.562,44.562,0,0,0,360-110.749a33.3,33.3,0,0,0,13.21-9.84v11.913h20.546v-35.541H370.965a25.937,25.937,0,0,1-6.213,10.335q-7.77,7.944-19.679,7.94t-19.6-7.94a26.09,26.09,0,0,1-6.155-10.335,34.549,34.549,0,0,1-1.528-10.55,36.686,36.686,0,0,1,.239-4.32Z"/>
      <rect id="Rectangle_88" data-name="Rectangle 88" width="21.579" height="14.871" transform="translate(380.441 -159.087)" fill="#fc1923"/>
    </g>
    <g id="Group_54" data-name="Group 54">
      <path id="Path_53" data-name="Path 53" d="M208.9-175.66q7.683-7.942,19.6-7.939t19.679,7.939a27.137,27.137,0,0,1,7.526,16.573h21.819a45.814,45.814,0,0,0-6.122-20.026,44.3,44.3,0,0,0-17.522-16.746A52.753,52.753,0,0,0,228.5-201.9a52.336,52.336,0,0,0-25.205,6.039,44.19,44.19,0,0,0-17.523,16.746,45.717,45.717,0,0,0-6.13,20.026h21.819A27.281,27.281,0,0,1,208.9-175.66Zm39.275,41.778q-7.77,7.944-19.679,7.94t-19.6-7.94a26.09,26.09,0,0,1-6.155-10.335H180.5a45.019,45.019,0,0,0,5.271,13.871,44.019,44.019,0,0,0,17.523,16.837A52.234,52.234,0,0,0,228.5-107.47a52.651,52.651,0,0,0,25.38-6.039A44.126,44.126,0,0,0,271.4-130.346a45,45,0,0,0,5.263-13.871H254.39A25.925,25.925,0,0,1,248.177-133.882Z"/>
      <rect id="Rectangle_89" data-name="Rectangle 89" width="21.579" height="14.871" transform="translate(187.728 -159.087)" fill="#fc1923"/>
    </g>
    <g id="Group_55" data-name="Group 55">
      <path id="Path_54" data-name="Path 54" d="M811.223-215.914c-7.61.009-13.25.049-22.1.04l6.012,7.848h22.206Z" fill="#fc1923"/>
      <rect id="Rectangle_90" data-name="Rectangle 90" width="21.579" height="14.871" transform="translate(820.436 -159.087)" fill="#fc1923"/>
      <path id="Path_55" data-name="Path 55" d="M810.514-249.55H787.382l26.246,20.2H830.2Zm-57.442,90.463a27.287,27.287,0,0,1,7.443-16.573q7.683-7.942,19.6-7.939t19.678,7.939a27.137,27.137,0,0,1,7.527,16.573H828.8v-41.779H807.217v11.22a36.326,36.326,0,0,0-13.036-9.146,42.664,42.664,0,0,0-16.49-3.106,49.015,49.015,0,0,0-24.082,5.865,41.925,41.925,0,0,0-16.573,16.49,47.872,47.872,0,0,0-5.808,20.456Zm-16.887,0q-.148,2.118-.148,4.32a58.454,58.454,0,0,0,.917,10.55,46.022,46.022,0,0,0,5.039,14.309,41.761,41.761,0,0,0,16.573,16.573,48.918,48.918,0,0,0,24.082,5.865A44.562,44.562,0,0,0,800-110.749a33.29,33.29,0,0,0,13.21-9.84v11.913h20.546v-35.541H810.96a25.925,25.925,0,0,1-6.213,10.335q-7.77,7.944-19.679,7.94t-19.6-7.94a26.1,26.1,0,0,1-6.155-10.335,34.549,34.549,0,0,1-1.528-10.55,36.461,36.461,0,0,1,.24-4.32Z"/>
      <path id="Path_56" data-name="Path 56" d="M807.6-215.914l-14.086-18.162H777.486l-20.205,26.05h22.207l6.012-7.848h0C794.349-215.865,799.99-215.9,807.6-215.914Z"/>
    </g>
    <g id="Group_57" data-name="Group 57">
      <path id="Path_57" data-name="Path 57" d="M943.469-191.715Q932.938-201.9,915.5-201.9a48.508,48.508,0,0,0-18.3,3.28,33.749,33.749,0,0,0-13.466,9.668v-11.912H863.192v59.127h21.58v-13.551q0-13.466,6.906-20.629t18.817-7.165q10.528,0,16.228,6.129t5.7,18.213v17H954V-161.5Q954-181.528,943.469-191.715Z"/>
      <g id="Group_56" data-name="Group 56">
        <rect id="Rectangle_91" data-name="Rectangle 91" width="21.58" height="33.062" transform="translate(857.409 -141.738)"/>
        <rect id="Rectangle_92" data-name="Rectangle 92" width="21.58" height="33.062" transform="translate(926.637 -141.738)"/>
      </g>
    </g>
    <g id="Group_59" data-name="Group 59">
      <path id="Path_58" data-name="Path 58" d="M568.6-191.8q-10.188-10.1-27.622-10.1a47.69,47.69,0,0,0-19.853,4.057,38.422,38.422,0,0,0-14.674,11.308,29.859,29.859,0,0,0-12.689-11.48,41.7,41.7,0,0,0-18.386-3.885,44.006,44.006,0,0,0-17.264,3.28,33.563,33.563,0,0,0-12.948,9.5v-11.74H424.616v59.127H446.2v-13.723q0-13.466,6.474-20.544t17.523-7.078q10.01,0,15.364,6.129t5.352,18.213v17h21.58v-13.723q0-13.292,6.56-20.457t17.436-7.165q10.011,0,15.365,6.129t5.352,18.213v17h21.58V-161.5Q578.782-181.7,568.6-191.8Z"/>
      <g id="Group_58" data-name="Group 58">
        <rect id="Rectangle_93" data-name="Rectangle 93" width="21.579" height="33.062" transform="translate(485.126 -141.738)"/>
        <rect id="Rectangle_94" data-name="Rectangle 94" width="21.58" height="33.062" transform="translate(418.833 -141.738)"/>
        <rect id="Rectangle_95" data-name="Rectangle 95" width="21.58" height="33.062" transform="translate(551.419 -141.738)"/>
      </g>
    </g>
  </g>
</svg>
